<svg width="24" height="15" viewBox="0 0 24 15" fill="none" xmlns="http://www.w3.org/2000/svg">
<g clip-path="url(#clip0_503_14)">
<path d="M1.21897 7.63779C1.15776 7.57327 1.08316 7.52203 1.00091 7.48598C0.918662 7.44993 0.830675 7.43285 0.740775 7.43285C0.650875 7.43095 0.562887 7.44993 0.480638 7.48408C0.398389 7.52014 0.323792 7.57137 0.262583 7.63589C0.199462 7.69851 0.14973 7.77252 0.117213 7.85411C0.0846956 7.93761 0.0674807 8.02489 0.0674807 8.11218C0.065568 8.20137 0.0827829 8.28866 0.117213 8.37026C0.151642 8.45185 0.201374 8.52586 0.264496 8.58848C0.325722 8.65302 0.399917 8.7041 0.482287 8.73842C0.564656 8.77275 0.653367 8.78954 0.742688 8.78772C0.831817 8.78821 0.920126 8.77081 1.0023 8.73657C1.08448 8.70233 1.15883 8.65195 1.22088 8.58848C1.28591 8.52775 1.33565 8.45375 1.37008 8.37215C1.4045 8.29056 1.42172 8.20327 1.42172 8.11408C1.42172 8.02489 1.4045 7.93761 1.37008 7.85601C1.33373 7.77252 1.284 7.69851 1.21897 7.63779ZM9.2239 6.09695C9.21433 6.52201 9.23537 6.94896 9.28511 7.37212H9.26215C9.2086 7.26776 9.09 7.0742 8.90829 6.79146L4.54718 0H3.22355V8.67007H4.24114V2.40234C4.25262 2.00575 4.2354 1.60915 4.19332 1.21256H4.23158C4.30426 1.40232 4.39799 1.58448 4.50893 1.75527L8.98863 8.67007H10.2415V0H9.2239V6.09695ZM17.1408 7.71748H13.5448V4.71361H16.6913V3.79897H13.5448V0.918432H16.9209V0H12.5024V8.67007H17.1351L17.1408 7.71748ZM17.9193 0V0.918432H20.4251V8.67007H21.4427V0.918432H23.9771V0H17.9193ZM7.94617 10.8257C7.692 10.9263 7.46244 11.0797 7.27287 11.2755C7.07777 11.4823 6.92475 11.7252 6.82529 11.9927C6.72582 12.2603 6.68183 12.543 6.69331 12.8258C6.67418 13.3495 6.8578 13.8619 7.20975 14.2528C7.38573 14.4368 7.59996 14.5792 7.83714 14.674C8.07432 14.7689 8.32872 14.8107 8.58312 14.7993C8.96567 14.8126 9.34631 14.7329 9.69252 14.5659L9.69635 14.1237C9.37883 14.3078 9.01732 14.3989 8.65007 14.3894C8.45305 14.397 8.25604 14.3628 8.07432 14.2888C7.89261 14.2148 7.72811 14.101 7.59422 13.9568C7.31422 13.6341 7.17036 13.2168 7.19254 12.7916C7.16959 12.3419 7.32452 11.9017 7.62291 11.5639C7.76446 11.4083 7.93852 11.2868 8.13171 11.2034C8.32563 11.1215 8.53504 11.082 8.7457 11.0876C9.08044 11.0819 9.40944 11.1635 9.70209 11.3248V10.8485C9.39858 10.7271 9.07276 10.6702 8.7457 10.6815C8.47218 10.6777 8.19865 10.7252 7.94617 10.8257ZM12.7147 12.1844C12.5869 12.051 12.4314 11.9467 12.2591 11.8785C12.0867 11.8104 11.9015 11.7801 11.7162 11.7897C11.5192 11.7802 11.3241 11.8125 11.1405 11.8827C10.9569 11.9529 10.7905 12.0592 10.6489 12.1939C10.5112 12.3457 10.406 12.5222 10.3371 12.7157C10.2683 12.9093 10.2396 13.1123 10.253 13.3173C10.2338 13.7063 10.3696 14.0877 10.6298 14.378C10.7598 14.5165 10.9167 14.6266 11.0927 14.7006C11.2686 14.7727 11.458 14.8088 11.6474 14.8012C11.8406 14.8069 12.0338 14.7708 12.2136 14.6968C12.3934 14.6228 12.554 14.5108 12.686 14.3685C12.9543 14.0685 13.093 13.676 13.0724 13.2755C13.0953 12.877 12.9672 12.488 12.7147 12.1844ZM12.3647 14.1332C12.2805 14.2296 12.1752 14.3056 12.0568 14.3552C11.9384 14.4049 11.8101 14.427 11.6818 14.4198C11.5498 14.4255 11.4198 14.4008 11.2992 14.3514C11.1787 14.3002 11.0716 14.2243 10.9836 14.1256C10.8003 13.9005 10.7083 13.6157 10.7254 13.3268C10.7082 13.0288 10.8 12.7347 10.9836 12.4994C11.0697 12.4007 11.1768 12.3229 11.2973 12.2698C11.4178 12.2186 11.5498 12.1939 11.6799 12.1996C11.81 12.192 11.9381 12.2167 12.0567 12.2679C12.1753 12.3191 12.2805 12.3969 12.3647 12.4956C12.5385 12.7342 12.623 13.0254 12.6038 13.3192C12.6229 13.6076 12.5387 13.8979 12.3647 14.1332ZM14.5816 11.9984C14.4381 12.1256 14.3329 12.2907 14.2813 12.4747V11.8789H13.8031V14.7329H14.2813V13.2774C14.266 13.0136 14.3348 12.7499 14.4764 12.526C14.528 12.4444 14.5969 12.3761 14.681 12.3286C14.7652 12.2812 14.8589 12.2527 14.9545 12.2508C15.077 12.2413 15.1994 12.2736 15.3027 12.3419V11.8713C15.2147 11.8428 15.1229 11.8296 15.0311 11.8334C14.8666 11.8315 14.7078 11.8903 14.5816 11.9984ZM18.101 13.1768C18.124 12.8144 18.015 12.4577 17.795 12.1692C17.686 12.0478 17.5521 11.951 17.401 11.8884C17.2499 11.8258 17.0873 11.7973 16.9247 11.8068C16.7449 11.8011 16.5651 11.8371 16.3987 11.9093C16.2342 11.9814 16.0869 12.0895 15.9683 12.2262C15.7086 12.5268 15.5739 12.9141 15.5915 13.3097C15.5666 13.7044 15.691 14.0953 15.9396 14.4027C16.0601 14.5336 16.2093 14.6361 16.3738 14.7044C16.5383 14.7727 16.7181 14.8012 16.896 14.7936C17.2499 14.8107 17.5999 14.7158 17.8945 14.5222V14.0934C17.6428 14.2962 17.3293 14.4086 17.005 14.4122C16.8807 14.4198 16.7545 14.4008 16.6378 14.3552C16.5211 14.3097 16.414 14.2433 16.326 14.1541C16.1551 13.9489 16.0684 13.6874 16.0831 13.4216H18.1049L18.101 13.1768ZM16.0793 13.044C16.1041 12.8182 16.2036 12.6057 16.3604 12.4406C16.4307 12.3656 16.5161 12.3062 16.6109 12.266C16.7058 12.2258 16.8081 12.2057 16.9113 12.2072C17.0108 12.2015 17.1083 12.2186 17.2001 12.2565C17.2919 12.2945 17.3723 12.3514 17.4373 12.4254C17.5712 12.6019 17.6382 12.8182 17.6286 13.0383L16.0793 13.044Z" fill="#565656"/>
</g>
<defs>
<clipPath id="clip0_503_14">
<rect width="24" height="15" fill="white"/>
</clipPath>
</defs>
</svg>
