<svg width="25" height="25" viewBox="0 0 25 25" fill="none" xmlns="http://www.w3.org/2000/svg">
<path d="M12.3555 20.1563C12.2734 20.1563 12.1914 20.1329 12.1172 20.0938L11.3672 19.6485C11.2539 19.586 11.3086 19.5625 11.3477 19.5508C11.4961 19.5 11.5273 19.4883 11.6875 19.3946C11.7031 19.3868 11.7266 19.3907 11.7422 19.3985L12.3203 19.7422C12.3398 19.7539 12.3711 19.7539 12.3906 19.7422L14.6484 18.4375C14.668 18.4258 14.6836 18.4024 14.6836 18.375V15.7696C14.6836 15.7422 14.6719 15.7188 14.6484 15.7071L12.3906 14.4063C12.3711 14.3946 12.3438 14.3946 12.3203 14.4063L10.0625 15.7071C10.0391 15.7188 10.0273 15.7461 10.0273 15.7696V18.375C10.0273 18.3985 10.043 18.4219 10.0625 18.4336L10.6797 18.7891C11.0156 18.9571 11.2227 18.7579 11.2227 18.5625V15.9883C11.2227 15.9532 11.25 15.9219 11.2891 15.9219H11.5742C11.6094 15.9219 11.6406 15.9493 11.6406 15.9883V18.5625C11.6406 19.0118 11.3984 19.2657 10.9727 19.2657C10.8438 19.2657 10.7383 19.2657 10.4531 19.125L9.85938 18.7852C9.71484 18.6993 9.62109 18.543 9.62109 18.375V15.7696C9.62109 15.6016 9.71094 15.4414 9.85938 15.3594L12.1172 14.0547C12.2617 13.9727 12.4492 13.9727 12.5898 14.0547L14.8477 15.3594C14.9922 15.4454 15.0859 15.6016 15.0859 15.7696V18.375C15.0859 18.543 14.9961 18.7032 14.8477 18.7852L12.5898 20.0899C12.5234 20.1329 12.4414 20.1563 12.3555 20.1563ZM14.1797 17.586C14.1797 17.0977 13.8516 16.9688 13.1562 16.875C12.4531 16.7813 12.3828 16.7344 12.3828 16.5704C12.3828 16.4336 12.4414 16.2539 12.9609 16.2539C13.4258 16.2539 13.5977 16.3555 13.668 16.668C13.6758 16.6993 13.6992 16.7188 13.7305 16.7188H14.0234C14.043 16.7188 14.0586 16.711 14.0703 16.6993C14.082 16.6836 14.0898 16.668 14.0859 16.6485C14.0391 16.1094 13.6836 15.8594 12.9609 15.8594C12.3164 15.8594 11.9336 16.1329 11.9336 16.586C11.9336 17.0821 12.3164 17.2149 12.9336 17.2774C13.6719 17.3516 13.7305 17.4571 13.7305 17.6016C13.7305 17.8555 13.5273 17.961 13.0508 17.961C12.4531 17.961 12.3203 17.8125 12.2773 17.5157C12.2734 17.4844 12.2461 17.461 12.2109 17.461H11.918C11.8828 17.461 11.8516 17.4883 11.8516 17.5274C11.8516 17.9063 12.0586 18.3594 13.0469 18.3594C13.7695 18.3594 14.1797 18.0782 14.1797 17.586ZM16.3086 15.6289C16.3086 15.8672 16.1133 16.0625 15.875 16.0625C15.6367 16.0625 15.4414 15.8672 15.4414 15.6289C15.4414 15.3829 15.6445 15.1954 15.875 15.1954C16.1094 15.1914 16.3086 15.3829 16.3086 15.6289ZM16.2383 15.6289C16.2383 15.4258 16.0742 15.2657 15.8711 15.2657C15.6719 15.2657 15.5078 15.4258 15.5078 15.6289C15.5078 15.8321 15.6719 15.9961 15.8711 15.9961C16.0742 15.9922 16.2383 15.8282 16.2383 15.6289ZM16.0625 15.8711H15.9609C15.957 15.8477 15.9414 15.7227 15.9414 15.7188C15.9336 15.6914 15.9258 15.6758 15.8906 15.6758H15.8047V15.8711H15.7109V15.3829H15.8789C15.9375 15.3829 16.0508 15.3829 16.0508 15.5118C16.0508 15.6016 15.9922 15.6211 15.957 15.6329C16.0234 15.6368 16.0273 15.6797 16.0391 15.7422C16.043 15.7813 16.0508 15.8477 16.0625 15.8711ZM15.9531 15.5274C15.9531 15.461 15.9062 15.461 15.8828 15.461H15.8047V15.5977H15.8789C15.9414 15.5977 15.9531 15.5547 15.9531 15.5274ZM5.36328 9.96098C5.36328 9.85551 5.30859 9.76176 5.21875 9.71098L2.82422 8.33207C2.78516 8.30864 2.73828 8.29692 2.69141 8.29301H2.66797C2.62109 8.29301 2.57812 8.30864 2.53516 8.33207L0.144531 9.71098C0.0546875 9.76176 0 9.85942 0 9.96098L0.00390625 13.6719C0.00390625 13.7227 0.03125 13.7696 0.0742188 13.7969C0.117188 13.8243 0.171875 13.8243 0.21875 13.7969L1.64062 12.9805C1.73047 12.9258 1.78516 12.8321 1.78516 12.7305V10.9961C1.78516 10.8946 1.83984 10.7969 1.92969 10.7461L2.53516 10.3985C2.58203 10.3711 2.62891 10.3594 2.67969 10.3594C2.73047 10.3594 2.78125 10.3711 2.82422 10.3985L3.42969 10.7461C3.51953 10.7969 3.57422 10.8946 3.57422 10.9961V12.7305C3.57422 12.8321 3.62891 12.9297 3.71875 12.9805L5.14062 13.7969C5.18359 13.8243 5.24219 13.8243 5.28516 13.7969C5.32812 13.7735 5.35547 13.7227 5.35547 13.6719L5.36328 9.96098ZM18.457 5.9102V12.8008C18.457 12.9024 18.4023 13 18.3125 13.0508L15.918 14.4336C15.8281 14.4844 15.7188 14.4844 15.6289 14.4336L13.2344 13.0508C13.1445 13 13.0898 12.9024 13.0898 12.8008V10.0352C13.0898 9.93364 13.1445 9.83598 13.2344 9.7852L15.6289 8.40239C15.7188 8.35161 15.8281 8.35161 15.918 8.40239L16.5156 8.74614C16.582 8.7852 16.668 8.73442 16.668 8.6602V4.98832C16.668 4.87895 16.7852 4.80864 16.8828 4.86332L18.3086 5.6602C18.3984 5.70707 18.457 5.80473 18.457 5.9102ZM16.6602 10.9454C16.6602 10.918 16.6445 10.8946 16.625 10.8829L15.8047 10.4063C15.7812 10.3946 15.7539 10.3946 15.7305 10.4063L14.9102 10.8829C14.8867 10.8946 14.875 10.918 14.875 10.9454V11.8946C14.875 11.9219 14.8906 11.9454 14.9102 11.9571L15.7305 12.4297C15.7539 12.4414 15.7812 12.4414 15.8008 12.4297L16.6211 11.9571C16.6445 11.9454 16.6562 11.9219 16.6562 11.8946V10.9454H16.6602ZM24.8555 10.918C24.9453 10.8672 25 10.7696 25 10.668V10C25 9.89848 24.9453 9.80082 24.8555 9.75004L22.4766 8.36723C22.3867 8.31645 22.2773 8.31645 22.1875 8.36723L19.793 9.75004C19.7031 9.80082 19.6484 9.89848 19.6484 10V12.7657C19.6484 12.8711 19.7031 12.9649 19.793 13.0157L22.1719 14.3711C22.2578 14.4219 22.3672 14.4219 22.457 14.3711L23.8945 13.5704C23.9922 13.5157 23.9922 13.375 23.8945 13.3204L21.4844 11.9375C21.4375 11.9102 21.4102 11.8633 21.4102 11.8125V10.9454C21.4102 10.8946 21.4375 10.8477 21.4844 10.8204L22.2344 10.3868C22.2773 10.3594 22.3359 10.3594 22.3789 10.3868L23.1289 10.8204C23.1719 10.8477 23.2031 10.8946 23.2031 10.9454V11.625C23.2031 11.7344 23.3242 11.8047 23.4219 11.75L24.8555 10.918ZM21.8359 11.0547C21.8203 11.0664 21.8086 11.0821 21.8086 11.1016V11.6329C21.8086 11.6524 21.8203 11.6719 21.8359 11.6797L22.2969 11.9454C22.3125 11.9571 22.3359 11.9571 22.3516 11.9454L22.8125 11.6797C22.8281 11.668 22.8398 11.6524 22.8398 11.6329V11.1016C22.8398 11.0821 22.8281 11.0625 22.8125 11.0547L22.3516 10.7891C22.3359 10.7774 22.3125 10.7774 22.2969 10.7891L21.8359 11.0547ZM11.9062 12.7539V10.0039C11.9062 9.90239 11.8438 9.80473 11.7539 9.75395L9.36719 8.37895C9.28516 8.33207 9.17188 8.32426 9.07812 8.37895L6.69141 9.75395C6.60156 9.80473 6.53906 9.89848 6.53906 10.0039V12.7539C6.53906 12.8633 6.61328 12.9571 6.69531 13.0039L9.08594 14.3789C9.17969 14.4336 9.28906 14.4297 9.375 14.3789L11.7578 13.0039C11.8281 12.9649 11.8789 12.8985 11.8984 12.8204C11.9023 12.8008 11.9062 12.7774 11.9062 12.7539ZM9.00391 7.87504L8.97266 7.89457H9.01562L9.00391 7.87504ZM11.9805 12.961L11.9648 12.9336V12.9688L11.9805 12.961Z" fill="#565656"/>
</svg>
